<svg xmlns="http://www.w3.org/2000/svg" xmlns:xlink="http://www.w3.org/1999/xlink" viewBox="560 580 380 380">
	<path d="M747.57 623.731C767.889 623.408 789.503 625.891 809.174 631.048C849.877 641.718 890.138 666.455 911.573 703.503C926.907 730.006 931.301 759.939 923.314 789.62C914.288 823.159 889.032 851.81 859.343 869.048C861.77 891.307 867.973 910.346 880.826 928.765Q879.597 928.581 878.373 928.369Q877.148 928.156 875.93 927.915Q874.71 927.674 873.497 927.405Q872.284 927.135 871.078 926.837Q869.872 926.539 868.673 926.213Q867.474 925.887 866.283 925.533Q865.092 925.179 863.909 924.797Q862.727 924.415 861.553 924.006Q860.38 923.597 859.217 923.16Q858.054 922.723 856.901 922.259Q855.748 921.795 854.607 921.305Q853.465 920.814 852.335 920.296Q851.205 919.779 850.088 919.235Q848.971 918.692 847.867 918.122Q846.762 917.552 845.672 916.957Q844.581 916.362 843.504 915.741Q842.428 915.12 841.366 914.474Q840.305 913.828 839.259 913.158Q838.213 912.487 837.182 911.793Q836.152 911.098 835.138 910.379Q834.125 909.66 833.128 908.918Q832.132 908.176 831.153 907.411Q830.174 906.645 829.213 905.857Q828.253 905.069 827.311 904.258Q826.369 903.448 825.446 902.616Q824.523 901.784 823.62 900.93Q822.717 900.076 821.835 899.202Q820.952 898.327 820.09 897.432Q819.228 896.538 818.387 895.623Q817.546 894.708 816.727 893.774Q815.908 892.839 815.111 891.886Q814.314 890.933 813.539 889.961L808.622 891.437C793.396 895.658 777.118 897.974 761.343 898.709C713.331 900.944 657.772 885.99 621.729 853.077C596.947 830.447 578.425 801.561 576.977 767.25C575.604 734.709 587.427 704.928 609.473 681.065C645.666 641.889 695.385 625.678 747.57 623.731Z"/>
	<path fill="#FEFEFE" d="M742.25 666.323C744.464 667.108 746.594 668.177 748.642 669.323C759.637 675.471 768.193 686.067 771.089 698.405C772.264 703.414 772.603 708.616 773.606 713.669C774.575 718.552 776.067 723.392 777.44 728.176C789.743 717.697 798.621 712.808 814.514 709.658C801.841 740.952 831.691 748.335 835.576 778.031Q835.757 779.446 835.868 780.868Q835.979 782.29 836.019 783.715Q836.06 785.141 836.029 786.567Q835.999 787.993 835.898 789.416Q835.797 790.838 835.625 792.254Q835.454 793.67 835.213 795.076Q834.971 796.482 834.661 797.874Q834.35 799.266 833.97 800.641Q833.591 802.016 833.144 803.37Q832.697 804.725 832.184 806.055Q831.67 807.386 831.091 808.689Q830.512 809.993 829.869 811.266Q829.226 812.539 828.521 813.779Q827.816 815.019 827.051 816.222Q826.285 817.426 825.46 818.589Q824.636 819.753 823.755 820.875C810.344 838.14 789.792 847.692 768.412 850.32C768.098 850.369 767.784 850.424 767.469 850.467C743.09 853.822 716.653 848.243 696.843 833.264C688.077 826.636 680.15 817.245 676.195 806.909C663.011 772.451 691.823 750.937 686.986 716.959C687.492 717.028 687.999 717.097 688.503 717.178C699.59 718.943 710.836 724.298 717.564 733.534C719.014 728.284 718.898 722.718 720.304 717.457C723.134 706.865 731.896 700.864 737.83 692.309C743.679 683.877 744.101 676.028 742.25 666.323Z"/>
	<path d="M757.564 763.781C761.975 770.445 761.768 786.866 767.06 792.453C767.936 792.373 767.97 792.57 768.454 792.033C770.958 789.252 770.593 782.254 770.469 778.771C771.748 779.506 772.993 780.287 774.066 781.309C778.673 785.704 781.131 792.18 784.601 797.441C786.91 800.941 790.133 804.247 791.856 808.062C792.858 810.281 793.468 812.846 793.501 815.283C793.547 818.783 792.272 821.889 789.811 824.377C781.507 832.774 763.841 833.478 752.861 833.533C742.352 833.585 726.788 831.986 718.099 825.458C715.556 823.548 713.81 821.008 713.426 817.807C712.318 808.571 723.823 790.505 729.49 783.602C730.912 787.321 731.741 791.31 732.675 795.174C737.764 789.211 745.446 787.232 750.232 781.075C754.217 775.949 753.48 768.319 757.564 763.781Z"/>
</svg>
