<svg xmlns="http://www.w3.org/2000/svg" viewBox="560 580 380 380" preserveAspectRatio="xMidYMid meet">
  <path d="M738.358 582.217C749.124 581.382 760.237 581.774 770.999 582.561C820.484 586.182 871.45 608.605 904.064 646.572C925.177 671.15 937.919 702.668 935.208 735.377C931.809 776.377 910.282 805.716 879.857 831.274C882.373 839.728 886.013 847.967 889.052 856.25C897.186 878.419 906.014 900.308 914.108 922.496C887.394 908.009 861.471 891.641 835.456 875.938Q825.714 870.043 815.838 864.375C800.103 870.003 782.189 872.446 765.585 873.549C710.832 877.185 656.641 862.749 614.901 826.138C588.2 802.719 569.977 771.52 567.779 735.578C565.732 702.097 579.545 667.937 601.711 643.136C636.642 604.05 686.93 585.249 738.358 582.217Z" />
  <path fill="#FEFEFE" d="M747.429 688.244C749.605 678.363 751.635 670.176 759.246 662.989C766.214 656.41 775.366 653.145 784.905 653.425C796.553 653.766 808.335 658.743 816.314 667.293C825.228 676.845 828.99 689.393 828.496 702.305C827.472 729.085 807.805 750.344 789.225 767.633C780.901 775.494 757.696 795.725 747.704 799.577C738.638 794.669 726.613 784.76 718.48 778.068C696.344 759.854 670.036 736.36 667.288 706.084C666.113 693.137 669.938 678.301 678.43 668.291C686.248 659.075 696.792 654.694 708.655 653.697C717.599 653.033 727.376 656.085 734.447 661.579C743.299 668.457 746.027 677.605 747.429 688.244Z" />
</svg>